<?xml version="1.0" standalone="no"?>
<!DOCTYPE svg PUBLIC "-//W3C//DTD SVG 20010904//EN"
 "http://www.w3.org/TR/2001/REC-SVG-20010904/DTD/svg10.dtd">
<svg version="1.0" xmlns="http://www.w3.org/2000/svg"
 width="402.000000pt" height="156.000000pt" viewBox="0 0 402.000000 156.000000"
 preserveAspectRatio="xMidYMid meet">

<g transform="translate(0.000000,156.000000) scale(0.100000,-0.100000)"
fill="#000000" stroke="none">
<path d="M690 1405 c0 -13 43 -15 330 -15 287 0 330 2 330 15 0 13 -43 15
-330 15 -287 0 -330 -2 -330 -15z"/>
<path d="M757 1313 c-4 -3 -7 -12 -7 -20 0 -10 51 -13 265 -13 258 0 265 1
265 20 0 19 -7 20 -258 20 -142 0 -262 -3 -265 -7z"/>
<path d="M820 1180 c0 -19 7 -20 200 -20 193 0 200 1 200 20 0 19 -7 20 -200
20 -193 0 -200 -1 -200 -20z"/>
<path d="M556 1121 c-3 -4 7 -32 21 -60 89 -173 505 -604 761 -789 114 -82
160 -95 134 -37 -8 18 -19 25 -40 25 -29 0 -105 47 -194 122 l-48 40 0 334 0
334 -25 0 -25 0 0 -300 c0 -330 1 -327 -58 -267 l-32 33 0 267 0 267 -30 0
-30 0 0 -230 c0 -255 -2 -260 -59 -195 l-31 36 0 194 0 195 -30 0 -30 0 0
-152 c0 -130 3 -154 18 -172 11 -13 5 -11 -15 6 -82 66 -233 269 -233 312 0
23 -44 53 -54 37z"/>
<path d="M2590 840 c0 -118 2 -140 15 -140 13 0 15 22 15 140 0 118 -2 140
-15 140 -13 0 -15 -22 -15 -140z"/>
<path d="M1673 955 c-99 -43 -96 -210 4 -252 30 -12 44 -13 75 -4 21 7 38 16
38 22 0 6 -9 7 -22 2 -38 -13 -79 -7 -100 15 -26 26 -36 118 -18 162 15 37 64
56 105 40 17 -7 32 -7 37 -2 6 6 -3 14 -23 21 -41 14 -56 13 -96 -4z"/>
<path d="M2684 959 c-10 -17 13 -36 27 -22 12 12 4 33 -11 33 -5 0 -12 -5 -16
-11z"/>
<path d="M2813 955 c-34 -14 -50 -48 -39 -83 4 -10 29 -31 57 -47 56 -30 64
-43 55 -81 -6 -24 -10 -25 -61 -23 -68 3 -80 -6 -26 -21 72 -19 141 28 127 86
-4 15 -27 38 -61 60 -46 29 -55 39 -55 64 0 29 1 30 50 30 28 0 50 5 50 10 0
6 -6 10 -12 10 -7 0 -22 2 -33 5 -11 3 -34 -2 -52 -10z"/>
<path d="M1894 870 c-78 -31 -66 -156 17 -175 32 -8 83 32 93 70 9 34 -18 89
-50 104 -29 13 -31 13 -60 1z m64 -22 c7 -7 12 -35 12 -63 0 -58 -12 -75 -52
-75 -23 0 -29 6 -39 39 -17 57 2 111 40 111 15 0 32 -5 39 -12z"/>
<path d="M2130 870 c-8 -6 -27 -7 -42 -4 l-28 6 0 -86 c0 -70 3 -86 15 -86 12
0 15 14 15 70 0 59 3 71 20 80 12 6 30 8 40 5 18 -6 20 -16 20 -81 0 -58 3
-74 15 -74 11 0 15 17 17 73 3 64 1 74 -19 90 -24 20 -32 21 -53 7z"/>
<path d="M2234 864 c-10 -8 -13 -13 -6 -9 7 3 21 3 32 0 18 -6 20 -15 20 -81
0 -59 3 -74 15 -74 24 0 21 141 -3 163 -23 21 -33 21 -58 1z"/>
<path d="M2382 871 c-9 -6 -12 -40 -10 -132 3 -109 5 -124 21 -127 14 -3 17 4
17 43 0 46 1 47 27 42 69 -13 122 66 89 131 -23 44 -50 57 -88 41 -22 -9 -32
-9 -37 -1 -3 6 -12 7 -19 3z m108 -30 c5 -11 10 -36 10 -56 0 -20 -5 -45 -10
-56 -12 -21 -50 -25 -68 -7 -16 16 -16 125 1 131 27 12 57 6 67 -12z"/>
<path d="M3008 865 c-35 -19 -52 -71 -37 -112 12 -37 61 -64 102 -56 39 8 33
20 -8 15 -43 -5 -65 11 -65 49 0 27 2 28 58 31 51 3 57 5 54 23 -3 22 -47 65
-65 65 -7 -1 -24 -7 -39 -15z m70 -37 c3 -27 1 -28 -37 -28 -33 0 -41 4 -41
18 0 26 21 43 50 40 19 -2 26 -10 28 -30z"/>
<path d="M3240 870 c-8 -6 -27 -7 -42 -4 l-28 6 0 -86 c0 -70 3 -86 15 -86 12
0 15 14 15 70 0 65 2 71 24 82 46 20 56 6 56 -77 0 -60 3 -75 15 -75 22 0 21
142 -1 164 -18 18 -33 20 -54 6z"/>
<path d="M3403 868 c-27 -13 -39 -44 -23 -62 6 -8 24 -19 41 -26 24 -10 29
-18 27 -39 -3 -22 -8 -26 -35 -27 -44 0 -51 -11 -14 -19 34 -7 66 6 81 35 15
27 -2 55 -40 68 -23 8 -30 17 -30 36 0 23 4 26 38 26 27 0 33 3 22 10 -19 12
-39 12 -67 -2z"/>
<path d="M3559 851 c-58 -58 -23 -155 55 -155 20 0 41 5 47 11 8 8 1 10 -28 6
-34 -4 -43 -2 -57 18 -32 46 -22 59 44 59 54 0 60 2 60 20 0 27 -43 70 -70 70
-12 0 -35 -13 -51 -29z m85 -7 c14 -36 7 -44 -39 -44 -46 0 -53 7 -35 41 13
24 65 26 74 3z"/>
<path d="M2680 785 c0 -78 2 -85 20 -85 18 0 20 7 20 85 0 78 -2 85 -20 85
-18 0 -20 -7 -20 -85z"/>
</g>
</svg>
